<svg xmlns="http://www.w3.org/2000/svg" viewBox="0 0 820 280" width="820" height="280" font-family="-apple-system,BlinkMacSystemFont,Segoe UI,Helvetica,Arial,sans-serif">
<rect width="820" height="280" fill="#f7f9fc" rx="10"/><text x="410" y="30" font-size="14" font-weight="700" fill="#0b1424" text-anchor="middle">LATENCY BUDGET  ·  240 ms TTFA  ·  under the 300 ms perceptual threshold</text><rect x="220.0" y="80" width="11.7" height="50" fill="#4c8dff" opacity="0.88"/><rect x="231.7" y="80" width="46.7" height="50" fill="#06b6d4" opacity="0.88"/><text x="255.0" y="109.0" font-size="10" font-weight="700" fill="white" text-anchor="middle">20</text><rect x="278.3" y="80" width="35.0" height="50" fill="#e74c3c" opacity="0.88"/><text x="295.8" y="109.0" font-size="10" font-weight="700" fill="white" text-anchor="middle">15</text><rect x="313.3" y="80" width="186.7" height="50" fill="#f5a623" opacity="0.88"/><text x="406.7" y="109.0" font-size="10" font-weight="700" fill="white" text-anchor="middle">80</text><rect x="500.0" y="80" width="70.0" height="50" fill="#2ecc71" opacity="0.88"/><text x="535.0" y="109.0" font-size="10" font-weight="700" fill="white" text-anchor="middle">30</text><rect x="570.0" y="80" width="93.3" height="50" fill="#2d3a55" opacity="0.88"/><text x="616.7" y="109.0" font-size="10" font-weight="700" fill="white" text-anchor="middle">40</text><rect x="663.3" y="80" width="116.7" height="50" fill="#a855f7" opacity="0.88"/><text x="721.7" y="109.0" font-size="10" font-weight="700" fill="white" text-anchor="middle">50</text><text x="788" y="109.0" font-size="13" font-weight="800" fill="#2ecc71">✓ 240 ms</text><text x="40" y="180" font-size="12" font-weight="700" fill="#0b1424">ms</text><rect x="40" y="210" width="12" height="12" rx="2" fill="#4c8dff"/><text x="58" y="220" font-size="10.5" fill="#0b1424">G2P / front-end (M1) <tspan font-family="monospace" fill="#2d3a55">5 ms</tspan></text><rect x="240" y="210" width="12" height="12" rx="2" fill="#06b6d4"/><text x="258" y="220" font-size="10.5" fill="#0b1424">Speaker encoder (M2) <tspan font-family="monospace" fill="#2d3a55">20 ms</tspan></text><rect x="440" y="210" width="12" height="12" rx="2" fill="#e74c3c"/><text x="458" y="220" font-size="10.5" fill="#0b1424">Safety classifier (M4) <tspan font-family="monospace" fill="#2d3a55">15 ms</tspan></text><rect x="640" y="210" width="12" height="12" rx="2" fill="#f5a623"/><text x="658" y="220" font-size="10.5" fill="#0b1424">Flow-matching 8 steps (M5) <tspan font-family="monospace" fill="#2d3a55">80 ms</tspan></text><rect x="40" y="234" width="12" height="12" rx="2" fill="#2ecc71"/><text x="58" y="244" font-size="10.5" fill="#0b1424">Vocoder (M6) <tspan font-family="monospace" fill="#2d3a55">30 ms</tspan></text><rect x="240" y="234" width="12" height="12" rx="2" fill="#2d3a55"/><text x="258" y="244" font-size="10.5" fill="#0b1424">Network <tspan font-family="monospace" fill="#2d3a55">40 ms</tspan></text><rect x="440" y="234" width="12" height="12" rx="2" fill="#a855f7"/><text x="458" y="244" font-size="10.5" fill="#0b1424">Jitter buffer <tspan font-family="monospace" fill="#2d3a55">50 ms</tspan></text></svg>