<svg xmlns="http://www.w3.org/2000/svg" viewBox="0 0 1180 360" width="1180" height="360" font-family="-apple-system,BlinkMacSystemFont,Segoe UI,Helvetica,Arial,sans-serif">
<rect width="1180" height="360" fill="#f7f9fc" rx="10"/><text x="590" y="30" font-size="14" font-weight="700" fill="#0b1424" text-anchor="middle" letter-spacing="0.5">SIX-MODULE NEURAL CORE  ·  fixed tensor contracts at every boundary</text><rect x="24.0" y="60" width="173.7" height="230" rx="8" fill="white" stroke="#4c8dff" stroke-width="1.5"/><rect x="24.0" y="60" width="173.7" height="34" rx="8" fill="#4c8dff"/><rect x="24.0" y="86" width="173.7" height="8" fill="#4c8dff"/><text x="36.0" y="83" font-size="14" font-weight="800" fill="white" letter-spacing="0.5">M1</text><text x="185.7" y="83" font-size="13" font-weight="600" fill="white" text-anchor="end">Linguistic</text><text x="110.8" y="116" font-size="10.5" fill="#2d3a55" text-anchor="middle" font-family="monospace">text → embeddings</text><rect x="36.0" y="129.0" width="149.7" height="18" rx="4" fill="#4c8dff" opacity="0.10"/><text x="110.8" y="142" font-size="10.5" fill="#0b1424" text-anchor="middle" font-weight="500">WeTextProcessing</text><rect x="36.0" y="151.0" width="149.7" height="18" rx="4" fill="#4c8dff" opacity="0.10"/><text x="110.8" y="164" font-size="10.5" fill="#0b1424" text-anchor="middle" font-weight="500">Misaki+Epitran</text><rect x="36.0" y="173.0" width="149.7" height="18" rx="4" fill="#4c8dff" opacity="0.10"/><text x="110.8" y="186" font-size="10.5" fill="#0b1424" text-anchor="middle" font-weight="500">XLM-RoBERTa</text><path d="M 199.7,170.0 L 213.7,175.0 L 199.7,180.0 Z" fill="#2d3a55"/><rect x="215.7" y="60" width="173.7" height="230" rx="8" fill="white" stroke="#06b6d4" stroke-width="1.5"/><rect x="215.7" y="60" width="173.7" height="34" rx="8" fill="#06b6d4"/><rect x="215.7" y="86" width="173.7" height="8" fill="#06b6d4"/><text x="227.7" y="83" font-size="14" font-weight="800" fill="white" letter-spacing="0.5">M2</text><text x="377.3" y="83" font-size="13" font-weight="600" fill="white" text-anchor="end">Reference</text><text x="302.5" y="116" font-size="10.5" fill="#2d3a55" text-anchor="middle" font-family="monospace">ref → voice identity</text><rect x="227.7" y="129.0" width="149.7" height="18" rx="4" fill="#06b6d4" opacity="0.10"/><text x="302.5" y="142" font-size="10.5" fill="#0b1424" text-anchor="middle" font-weight="500">ECAPA-TDNN</text><rect x="227.7" y="151.0" width="149.7" height="18" rx="4" fill="#06b6d4" opacity="0.10"/><text x="302.5" y="164" font-size="10.5" fill="#0b1424" text-anchor="middle" font-weight="500">WavLM-Large FP16</text><rect x="227.7" y="173.0" width="149.7" height="18" rx="4" fill="#06b6d4" opacity="0.10"/><text x="302.5" y="186" font-size="10.5" fill="#0b1424" text-anchor="middle" font-weight="500">xFormers x-attn</text><path d="M 391.3,170.0 L 405.3,175.0 L 391.3,180.0 Z" fill="#2d3a55"/><rect x="407.3" y="60" width="173.7" height="230" rx="8" fill="white" stroke="#a855f7" stroke-width="1.5"/><rect x="407.3" y="60" width="173.7" height="34" rx="8" fill="#a855f7"/><rect x="407.3" y="86" width="173.7" height="8" fill="#a855f7"/><text x="419.3" y="83" font-size="14" font-weight="800" fill="white" letter-spacing="0.5">M3</text><text x="569.0" y="83" font-size="13" font-weight="600" fill="white" text-anchor="end">Fusion + Prosody</text><text x="494.2" y="116" font-size="10.5" fill="#2d3a55" text-anchor="middle" font-family="monospace">embeddings → aligned tokens</text><rect x="419.3" y="129.0" width="149.7" height="18" rx="4" fill="#a855f7" opacity="0.10"/><text x="494.2" y="142" font-size="10.5" fill="#0b1424" text-anchor="middle" font-weight="500">StyleTTS2</text><rect x="419.3" y="151.0" width="149.7" height="18" rx="4" fill="#a855f7" opacity="0.10"/><text x="494.2" y="164" font-size="10.5" fill="#0b1424" text-anchor="middle" font-weight="500">Llama-3-8B 4-bit</text><rect x="419.3" y="173.0" width="149.7" height="18" rx="4" fill="#a855f7" opacity="0.10"/><text x="494.2" y="186" font-size="10.5" fill="#0b1424" text-anchor="middle" font-weight="500">Emotion2Vec</text><path d="M 583.0,170.0 L 597.0,175.0 L 583.0,180.0 Z" fill="#2d3a55"/><rect x="599.0" y="60" width="173.7" height="230" rx="8" fill="white" stroke="#e74c3c" stroke-width="1.5"/><rect x="599.0" y="60" width="173.7" height="34" rx="8" fill="#e74c3c"/><rect x="599.0" y="86" width="173.7" height="8" fill="#e74c3c"/><text x="611.0" y="83" font-size="14" font-weight="800" fill="white" letter-spacing="0.5">M4</text><text x="760.7" y="83" font-size="13" font-weight="600" fill="white" text-anchor="end">Guardrails</text><text x="685.8" y="116" font-size="10.5" fill="#2d3a55" text-anchor="middle" font-family="monospace">tokens → audited tokens</text><rect x="611.0" y="129.0" width="149.7" height="18" rx="4" fill="#e74c3c" opacity="0.10"/><text x="685.8" y="142" font-size="10.5" fill="#0b1424" text-anchor="middle" font-weight="500">ShieldGemma-2B</text><rect x="611.0" y="151.0" width="149.7" height="18" rx="4" fill="#e74c3c" opacity="0.10"/><text x="685.8" y="164" font-size="10.5" fill="#0b1424" text-anchor="middle" font-weight="500">ECAPA consent</text><rect x="611.0" y="173.0" width="149.7" height="18" rx="4" fill="#e74c3c" opacity="0.10"/><text x="685.8" y="186" font-size="10.5" fill="#0b1424" text-anchor="middle" font-weight="500">AudioSeal</text><path d="M 774.7,170.0 L 788.7,175.0 L 774.7,180.0 Z" fill="#2d3a55"/><rect x="790.7" y="60" width="173.7" height="230" rx="8" fill="white" stroke="#f5a623" stroke-width="1.5"/><rect x="790.7" y="60" width="173.7" height="34" rx="8" fill="#f5a623"/><rect x="790.7" y="86" width="173.7" height="8" fill="#f5a623"/><text x="802.7" y="83" font-size="14" font-weight="800" fill="white" letter-spacing="0.5">M5</text><text x="952.3" y="83" font-size="13" font-weight="600" fill="white" text-anchor="end">Generator</text><text x="877.5" y="116" font-size="10.5" fill="#2d3a55" text-anchor="middle" font-family="monospace">tokens → 80-ch mel</text><rect x="802.7" y="129.0" width="149.7" height="18" rx="4" fill="#f5a623" opacity="0.10"/><text x="877.5" y="142" font-size="10.5" fill="#0b1424" text-anchor="middle" font-weight="500">Matcha-TTS OT-CFM</text><rect x="802.7" y="151.0" width="149.7" height="18" rx="4" fill="#f5a623" opacity="0.10"/><text x="877.5" y="164" font-size="10.5" fill="#0b1424" text-anchor="middle" font-weight="500">F5-TTS flow-matching</text><rect x="802.7" y="173.0" width="149.7" height="18" rx="4" fill="#f5a623" opacity="0.10"/><text x="877.5" y="186" font-size="10.5" fill="#0b1424" text-anchor="middle" font-weight="500">Mamba-2 opt</text><path d="M 966.3,170.0 L 980.3,175.0 L 966.3,180.0 Z" fill="#2d3a55"/><rect x="982.3" y="60" width="173.7" height="230" rx="8" fill="white" stroke="#2ecc71" stroke-width="1.5"/><rect x="982.3" y="60" width="173.7" height="34" rx="8" fill="#2ecc71"/><rect x="982.3" y="86" width="173.7" height="8" fill="#2ecc71"/><text x="994.3" y="83" font-size="14" font-weight="800" fill="white" letter-spacing="0.5">M6</text><text x="1144.0" y="83" font-size="13" font-weight="600" fill="white" text-anchor="end">Vocoder</text><text x="1069.2" y="116" font-size="10.5" fill="#2d3a55" text-anchor="middle" font-family="monospace">mel → 24 kHz PCM</text><rect x="994.3" y="129.0" width="149.7" height="18" rx="4" fill="#2ecc71" opacity="0.10"/><text x="1069.2" y="142" font-size="10.5" fill="#0b1424" text-anchor="middle" font-weight="500">Vocos iSTFT</text><rect x="994.3" y="151.0" width="149.7" height="18" rx="4" fill="#2ecc71" opacity="0.10"/><text x="1069.2" y="164" font-size="10.5" fill="#0b1424" text-anchor="middle" font-weight="500">chunked streaming</text><rect x="994.3" y="173.0" width="149.7" height="18" rx="4" fill="#2ecc71" opacity="0.10"/><text x="1069.2" y="186" font-size="10.5" fill="#0b1424" text-anchor="middle" font-weight="500">20 ms packets</text><text x="24.0" y="48" font-size="11" font-weight="600" fill="#1a2540">text ↓</text><text x="1156.0" y="48" font-size="11" font-weight="600" fill="#1a2540" text-anchor="end">↓ 24 kHz PCM</text><text x="302.5" y="312" font-size="11" font-weight="600" fill="#06b6d4" text-anchor="middle">↑ reference (5–60 s)</text><line x1="302.5" y1="296" x2="302.5" y2="288" stroke="#06b6d4" stroke-width="2" marker-end="url(#arr)"/><defs><marker id="arr" markerWidth="8" markerHeight="8" refX="4" refY="4" orient="auto"><path d="M0,0 L8,4 L0,8 Z" fill="#06b6d4"/></marker></defs></svg>